<svg xmlns="http://www.w3.org/2000/svg" viewBox="0 0 512 448"><defs><style>.cls-1{fill:#fff;}</style></defs><g id="Layer_2" data-name="Layer 2"><g id="Layer_1-2" data-name="Layer 1"><path class="cls-1" d="M464,0H48A48,48,0,0,0,0,48V400a48,48,0,0,0,48,48H464a48,48,0,0,0,48-48V48A48,48,0,0,0,464,0Zm0,394a6,6,0,0,1-6,6H54a6,6,0,0,1-6-6V54a6,6,0,0,1,6-6H458a6,6,0,0,1,6,6ZM356.5,162.6,295.1,224l61.4,61.4a12,12,0,0,1,0,16.8l-22.3,22.3a12,12,0,0,1-16.8,0L256,263.1l-61.4,61.4a12,12,0,0,1-16.8,0l-22.3-22.3a12,12,0,0,1,0-16.8L216.9,224l-61.4-61.4a12,12,0,0,1,0-16.8l22.3-22.3a12,12,0,0,1,16.8,0L256,184.9l61.4-61.4a12,12,0,0,1,16.8,0l22.3,22.3a11.77,11.77,0,0,1,0,16.8Z"/></g></g></svg>